<svg id="e4HVG9auZBD1" xmlns="http://www.w3.org/2000/svg" xmlns:xlink="http://www.w3.org/1999/xlink" viewBox="0 0 667 667" shape-rendering="geometricPrecision" text-rendering="geometricPrecision" style="background-color:transparent"><rect width="667" height="667" rx="0" ry="0" transform="translate(-2.16693 0)" fill="#f5f5f5"/><g transform="translate(-.000008-5.564826)" clip-path="url(#e4HVG9auZBD378)"><g transform="translate(.000008-.000012)"><g transform="translate(0 5.564826)"><path d="M0,436.927h666.667v-.332h-666.667v.332Z" fill="#e7e7e7"/><path d="M122.273,457.099h44.163v-.333h-44.163v.333Z" fill="#e7e7e7"/><path d="M82.7053,457.099h25.5907v-.333h-25.5907v.333Z" fill="#e7e7e7"/><path d="M255.151,462.007h25.589v-.333h-25.589v.333Z" fill="#e7e7e7"/><path d="M356.565,469.451h57.591v-.333h-57.591v.333Z" fill="#e7e7e7"/><path d="M336.249,469.451h8.444v-.333h-8.444v.333Z" fill="#e7e7e7"/><path d="M479.556,462.007h124.901v-.333h-124.901v.333Z" fill="#e7e7e7"/><g><g><g><path d="M58.5533,0.333346c-4.0133,0-7.2773,3.264014-7.2773,7.277344v361.90831c0,4.013,3.264,7.277,7.2773,7.277h257.4657c4.01,0,7.276-3.264,7.276-7.277v-361.90831c0-4.01333-3.266-7.277344-7.276-7.277344h-257.4657ZM316.019,377.129h-257.4657c-4.196,0-7.6106-3.413-7.6106-7.61v-361.90831c0-4.196,3.4146-7.610678,7.6106-7.610678h257.4657c4.194,0,7.609,3.414678,7.609,7.610678v361.90831c0,4.197-3.415,7.61-7.609,7.61" fill="#e7e7e7"/></g><g><path d="M346.949,0.333346c-4.012,0-7.276,3.264014-7.276,7.277344v361.90831c0,4.013,3.264,7.277,7.276,7.277h257.466c4.012,0,7.277-3.264,7.277-7.277v-361.90831c0-4.01333-3.265-7.277344-7.277-7.277344h-257.466ZM604.415,377.129h-257.466c-4.194,0-7.609-3.413-7.609-7.61v-361.90831c0-4.196,3.415-7.610678,7.609-7.610678h257.466c4.196,0,7.61,3.414678,7.61,7.610678v361.90831c0,4.197-3.414,7.61-7.61,7.61" fill="#e7e7e7"/></g><path d="M356.532,439.012h-29.319v-116.311h29.319v116.311Z" fill="#e1e1e1"/><g><path d="M350.964,439.012h5.569v-15.84h-11.408l5.839,15.84Z" fill="#fafafa"/></g><path d="M228.059,439.012h-29.319v-116.311h29.319v116.311Z" fill="#e1e1e1"/><path d="M356.532,429.292h-133.333v-106.591h133.333v106.591Z" fill="#fafafa"/><path d="M352.212,327.424h-124.695v29.233h124.695v-29.233Zm-.515,28.716h-123.665v-28.199h123.665v28.199Z" fill="#e1e1e1"/><g><path d="M228.767,439.012h-5.568v-15.84h11.407l-5.839,15.84Z" fill="#fafafa"/></g><g><path d="M286.917,342.04c0,1.629,1.32,2.949,2.948,2.949c1.629,0,2.949-1.32,2.949-2.949c0-1.63-1.32-2.95-2.949-2.95-1.628,0-2.948,1.32-2.948,2.95Z" fill="#e7e7e7"/></g><path d="M352.212,361.379h-124.695v29.232h124.695v-29.232Zm-.515,28.717h-123.665v-28.201h123.665v28.201Z" fill="#e1e1e1"/><g><path d="M286.917,375.995c0,1.63,1.32,2.95,2.948,2.95c1.629,0,2.949-1.32,2.949-2.95c0-1.629-1.32-2.948-2.949-2.948-1.628,0-2.948,1.319-2.948,2.948Z" fill="#e7e7e7"/></g><path d="M352.212,395.337h-124.695v29.231h124.695v-29.231Zm-.515,28.715h-123.665v-28.201h123.665v28.201Z" fill="#e1e1e1"/><g><path d="M286.917,409.953c0,1.628,1.32,2.948,2.948,2.948c1.629,0,2.949-1.32,2.949-2.948c0-1.63-1.32-2.95-2.949-2.95-1.628,0-2.948,1.32-2.948,2.95Z" fill="#e7e7e7"/></g><path d="M210.147,439.012h-29.319v-183.861h29.319v183.861Z" fill="#e1e1e1"/><g><path d="M204.578,439.012h5.569v-15.84h-11.408l5.839,15.84Z" fill="#fafafa"/></g><path d="M100.571,439.012h-29.319v-183.861h29.319v183.861Z" fill="#e1e1e1"/><path d="M210.147,429.292h-114.4377v-174.141h114.4377v174.141Z" fill="#fafafa"/><path d="M205.827,259.475h-105.798v40.641h105.798v-40.641Zm-.607,40.033h-104.581v-39.426h104.581v39.426Z" fill="#e1e1e1"/><path d="M205.827,303.694h-51.03v105.797h51.03v-105.797Zm-.607,105.188h-49.815v-104.582h49.815v104.582Z" fill="#e1e1e1"/><path d="M151.06,303.694h-51.029v105.797h51.029v-105.797Zm-.608,105.188h-49.815v-104.582h49.815v104.582Z" fill="#e1e1e1"/><g><path d="M101.279,439.012h-5.5683v-15.84h11.4063l-5.838,15.84Z" fill="#fafafa"/></g><g><path d="M149.98,279.795c0,1.629,1.32,2.949,2.948,2.949c1.629,0,2.949-1.32,2.949-2.949c0-1.628-1.32-2.948-2.949-2.948-1.628,0-2.948,1.32-2.948,2.948Z" fill="#e7e7e7"/></g><g><path d="M160.538,354.097c0,1.629,1.32,2.949,2.948,2.949c1.629,0,2.949-1.32,2.949-2.949s-1.32-2.949-2.949-2.949c-1.628,0-2.948,1.32-2.948,2.949Z" fill="#e7e7e7"/></g><g><path d="M139.422,354.097c0,1.629,1.32,2.949,2.948,2.949c1.629,0,2.949-1.32,2.949-2.949s-1.32-2.949-2.949-2.949c-1.628,0-2.948,1.32-2.948,2.949Z" fill="#e7e7e7"/></g><g><path d="M89.0709,230.928v8.036c0,8.902,7.284,16.186,16.1881,16.186h8.035c8.904,0,16.188-7.284,16.188-16.186v-8.036h-40.4111Z" fill="#f5f5f5"/></g><g><path d="M260.889,305.749c0,9.323,10.441,16.951,23.204,16.951h11.518c12.762,0,23.204-7.628,23.204-16.951h-57.926Z" fill="#e1e1e1"/></g><g><path d="M549.92,439.012h-41.792l-3.153-40.965h48.1l-3.155,40.965Z" fill="#f0f0f0"/></g><g><path d="M556.189,402.821h-54.328L500.305,389h57.441l-1.557,13.821Z" fill="#f5f5f5"/></g><path d="M165.679,109.458h-74.7363v-82.0655h74.7363v82.0655Z" fill="#e1e1e1"/><path d="M173.775,109.458h-77.1964v-82.0655h77.1964v82.0655Z" fill="#f5f5f5"/><path d="M103.044,33.8605h64.263v69.1315h-64.263v-69.1315Z" fill="#fff"/><path d="M118.62,50.6165h33.111v35.6187h-33.111v-35.6187Z" fill="#f5f5f5"/><path d="M546.735,113.195h-69.427v-76.2358h69.427v76.2358Z" fill="#e1e1e1"/><path d="M554.253,113.195h-71.712v-76.2358h71.712v76.2358Z" fill="#f5f5f5"/><path d="M488.549,42.9672h59.696v64.2198h-59.696v-64.2198Z" fill="#fff"/><g><path d="M537.022,75.0775c0,10.2853-8.339,18.624-18.625,18.624s-18.624-8.3387-18.624-18.624c0-10.2854,8.338-18.624,18.624-18.624s18.625,8.3386,18.625,18.624Z" fill="#f5f5f5"/></g><path d="M243.32,137.203h-55.441v-60.8772h55.441v60.8772Z" fill="#e1e1e1"/><path d="M249.325,137.203h-57.266v-60.8772h57.266v60.8772Z" fill="#f5f5f5"/><path d="M196.856,81.1232h47.671v51.2828h-47.671v-51.2828Z" fill="#fff"/><g><path d="M220.691,93.8008L207.654,116.383h26.075L220.691,93.8008Z" fill="#f5f5f5"/></g></g></g><g><g><g><path d="M179.278,243.723c78.047,80.472,180.623,136.27,275.704,46.166c49.013-46.448,113.788-171.912,49.871-229.323-88.087-79.1227-138.639,50.34-204.499,67.881-45.143,12.024-83.095-57.2797-137.139-11.005-42.722,36.58-16.382,92.827,16.063,126.281Z" transform="translate(-.103649-.032552)" fill="#f5f5f5"/></g></g></g><g><g><g><path d="M591.852,481.714c0,8.339-115.743,15.098-258.519,15.098s-258.5174-6.759-258.5174-15.098c0-8.338,115.7414-15.097,258.5174-15.097s258.519,6.759,258.519,15.097Z" fill="#f5f5f5"/></g></g></g><g id="e4HVG9auZBD81" transform="translate(102.197-1.054778)"><g><g><path d="M492.809,130.827l-13.224-5.363c0,0-17.453,31.831-22.453,33.438-6.801,2.185-20.869,8.265-29.229,9.404-1.127,1.317-2.986,5.472-2.808,6.986c11.216,3.74,35.854-1.226,41.13-5.144c12.023-8.93,26.584-39.321,26.584-39.321Z" fill="#ff8b7b"/></g><g><path d="M496.882,123.606c2.462,9.117-10.898,27.434-10.898,27.434l-17.55-9.844c0,0,3.272-7.529,7.278-15.197c6.468-12.384,18.362-12.801,21.17-2.393Z" fill="#007cff"/></g><g><g><g opacity="0.199997"><g><path d="M496.882,123.606c2.462,9.117-10.898,27.434-10.898,27.434l-17.55-9.844c0,0,3.272-7.529,7.278-15.197c6.468-12.384,18.362-12.801,21.17-2.393Z"/></g></g></g></g><g><g><g opacity="0.199997"><g><path d="M475.432,145.116l6.892,3.864l1.205-21.155c-4.001,3.083-6.837,12.359-8.097,17.291Z"/></g></g></g></g><g><path d="M485.366,116.735c0,0-13.627,30.315-5.683,86.77h53.694c.852-8.243-1.969-48.451,8.258-87.287c0,0-9.095-1.847-17.842-2.269-6.841-.331-16.76-.55-22.824.001-7.994.725-15.603,2.785-15.603,2.785Z" fill="#007cff"/></g><g><g><g opacity="0.199997"><g><path d="M485.366,116.735c0,0-13.627,30.315-5.683,86.77h53.694c.852-8.243-1.969-48.451,8.258-87.287c0,0-9.095-1.847-17.842-2.269-6.841-.331-16.76-.55-22.824.001-7.994.725-15.603,2.785-15.603,2.785Z"/></g></g></g></g><g><g><g><g><path d="M472.914,469.107c-.084,1.432,20.273,2.592,45.469,2.592s45.688-1.16,45.773-2.592c.084-1.431-20.273-2.592-45.469-2.592s-45.691,1.161-45.773,2.592Z" fill="#e7edf2"/></g></g></g></g><g><path d="M518.244,454.382l-9.554,3.683-8.21-21.262l9.555-3.681l8.209,21.26Z" fill="#ff8b7b"/></g><g><path d="M551.217,458.857h-10.037l-3.684-23.248h10.038l3.683,23.248Z" fill="#ff8b7b"/></g><g><path d="M540.533,457.694h11.279c.411,0,.749.286.813.687l1.46,8.923c.152.925-.626,1.801-1.574,1.785-3.934-.068-5.832-.299-10.791-.299-3.052,0-9.357.318-13.571.318-4.121,0-4.52-4.167-2.772-4.546c7.834-1.69,10.884-4.024,13.491-6.25.471-.402,1.065-.618,1.665-.618Z" fill="#1a2e35"/></g><g><path d="M507.113,454.18l10.695-3.109c.4-.116.812.057.99.414l3.962,7.996c.412.828-.074,1.868-1.003,2.122-3.873,1.056-6.477,1.718-11.327,3.128-3.349.974-6.758,2.561-10.068,3.616-2.293.73-7.676.76-10.464.76-4.121,0-5.038-4.344-3.273-4.544c4.469-.502,5.071-.268,7.537-1.507c4.08-2.047,7.236-3.741,10.768-7.441.618-.644,1.338-1.19,2.183-1.435Z" fill="#1a2e35"/></g><g><path d="M429.593,168.211l-11.046-4.648L414,175.8c0,0,6.375,1.156,13.655,0l1.938-7.589Z" fill="#ff8b7b"/></g><g><path d="M500.484,436.809l4.231,10.96l9.558-3.684-4.23-10.96-9.559,3.684Z" fill="#ea7064"/></g><g><path d="M547.537,435.616h-10.041l1.903,11.983h10.042l-1.904-11.983Z" fill="#ea7064"/></g><g><path id="e4HVG9auZBD124" d="M491.015,144.502l-1.36-.162c.794-6.652,5.76-11.911,11.007-11.787l-.04,1.371c-4.529-.131-8.895,4.612-9.607,10.578Z" transform="translate(.115039 0.204734)" fill="#fff"/></g><g id="e4HVG9auZBD125" transform="translate(-3.056171 0.932845)"><path d="M498.119,156.814c-.074,0-.149,0-.224-.002l.039-1.371c4.587.168,8.893-4.611,9.607-10.577l1.36.161c-.782,6.559-5.591,11.789-10.782,11.789Z" fill="#fff"/></g><g><path d="M523.04,88.2478c-1.871,7.344-4.096,20.8002.753,25.7012c0,0-3.388,7.449-17.033,7.449-12.469,0-5.791-7.449-5.791-7.449c8.306-1.955,8.45-8.032,7.358-13.737L523.04,88.2478Z" fill="#ff8b7b"/></g><g><path d="M517.041,93.1293l-8.708,7.0757c.263,1.351.45,2.72.466,4.051c2.546,2.536,7.656-3.885,8.178-7.1614.262-1.6333.286-3.204.064-3.9653Z" fill="#ea7064"/></g><g><path d="M493.368,88.1573c1.276,2.2867,3.528,3.708,5.656,4.1813c3.203.7134,4.811-2.232,3.927-5.196-.794-2.668-3.416-6.2533-6.634-5.6386-3.169.6053-4.409,4.04-2.949,6.6533Z" fill="#ea7064"/></g><g><path d="M498.651,64.6521c-4.987,2.284-6.744,22.0946-.474,25.024c6.268,2.928,9.92-29.352.474-25.024Z" fill="#1a2e35"/></g><g id="e4HVG9auZBD135" transform="translate(.000003 0)"><path d="M524.561,77.1963c-1.194,9.944-1.388,15.796-6.71,20.9-8.005,7.6777-20.013,3.1227-21.804-6.8026-1.612-8.9347.611-23.696,10.578-27.6534c9.817-3.9,19.13,3.612,17.936,13.556Z" fill="#ff8b7b"/></g><g id="e4HVG9auZBD137" transform="translate(.000002 0)"><path d="M508.181,69.805c7.376-1.888,12.805-3.172,10.866,2.9854-2.58,8.2026-5.674,16.1493-1.522,16.5186c2.524.2254,13.726-4.528,12.304-9.3333-1.239-4.1867,3.968-5.316,4.928-7.4507c3.457-7.688-6.423-6.6893-4.663-11.3413c1.712-4.5293-7.959-12.184-13.317-8.444-8.675,6.0533-23.58,5.9667-15.743-3.964c5.612-7.112-4.403-5.652-4.403-5.652s6.05,3.588-4.132,9.1347c-10.79,5.88-.912,21.792,15.682,17.5466Z" fill="#1a2e35"/></g><g><path d="M528.41,88.1573c-1.544,2.2867-3.963,3.708-6.147,4.1813-3.284.7134-4.548-2.232-3.319-5.196c1.107-2.668,4.152-6.2533,7.296-5.6386c3.098.6053,3.936,4.04,2.17,6.6533Z" fill="#ff8b7b"/></g><g><path d="M479.683,203.504c0,0-9.012,80.663-9.714,111.276-.732,31.843,30.544,131.194,30.544,131.194l16.014-6.726c0,0-18.648-90.765-16.057-122.037c2.824-34.092,14.509-113.707,14.509-113.707h-35.296Z" transform="translate(.15681 0)" fill="#007cff"/></g><g><g><g opacity="0.199997"><g><path d="M502.082,225.653c-7.18,14.907-2.344,44.38,1.548,61.848c1.48-12.33,3.233-25.717,4.905-38.104-.164-19.045-1.645-33.745-6.453-23.744Z"/></g></g></g></g><g><path d="M515.803,434.019c.075-.031,1.899,5.104,1.899,5.104l-18.459,7.752-2.909-5.408l19.469-7.448Z" fill="#007cff"/></g><g><path d="M498.731,203.504c0,0,6.895,76.718,11.464,105.46c5.004,31.474,24.66,136.315,24.66,136.315h18.387c0,0-11.017-102.301-13.097-133.463-2.26-33.821-6.768-108.312-6.768-108.312h-34.646Z" fill="#007cff"/></g><g><path d="M553.523,440.487c.079,0,.615,5.139.615,5.139h-20.21l-1.442-5.9l21.037.761Z" fill="#007cff"/></g><g><g><g opacity="0.199997"><g><path d="M546.479,434.414c-.087,0-.16-.065-.17-.152-.1-.93-10.034-93.289-11.905-121.286-2.028-30.383-6.107-97.75-6.148-98.427-.005-.095.067-.175.16-.181h.012c.088,0,.165.07.171.161.04.676,4.118,68.043,6.148,98.423c1.869,27.99,11.802,120.344,11.902,121.273.011.096-.057.179-.15.188-.008.001-.015.001-.02.001Z"/></g></g></g></g><g><path d="M509.315,79.9757c-.047.8093-.516,1.4667-1.044,1.4667-.53,0-.92-.6574-.872-1.4667.046-.8093.514-1.4667,1.044-1.4667.529,0,.92.6574.872,1.4667Z" fill="#1a2e35"/></g><g><path d="M500.162,79.9757c-.046.8093-.514,1.4667-1.044,1.4667-.529,0-.92-.6574-.872-1.4667s.515-1.4667,1.044-1.4667c.53,0,.92.6574.872,1.4667Z" fill="#1a2e35"/></g><g><path d="M503.049,80.3787c0,0-2.116,4.6706-4.275,6.9253c1.355,1.336,3.826.7253,3.826.7253l.449-7.6506Z" fill="#ff5652"/></g><g><path d="M503.281,91.4262c-.131,0-.232-.1067-.224-.2373.008-.132.121-.2387.252-.2387c3.554,0,5.358-2.4827,5.377-2.5067.079-.1106.229-.1413.333-.0693.106.072.127.2187.05.3293-.08.1107-1.979,2.7227-5.788,2.7227Z" fill="#1a2e35"/></g><g id="e4HVG9auZBD167"><path d="M510.942,77.5127c-.137.0534-.293.0454-.418-.036-1.751-1.1013-3.382-.3626-3.398-.3533-.224.1147-.521.0133-.621-.2227-.1-.2373.017-.5226.26-.636.087-.0413,2.129-.968,4.299.3987.217.1373.27.4307.121.6533-.06.092-.148.1587-.243.196Z" fill="#1a2e35"/></g><g id="e4HVG9auZBD169"><path d="M496.471,78.3688c-.067-.0186-.13-.052-.183-.1026-.184-.1734-.185-.4734,0-.6707c1.863-1.9667,4.02-1.6667,4.109-1.6533.255.028.424.28.37.54s-.306.4386-.562.4013c-.072-.0107-1.757-.2253-3.244,1.344-.13.14-.325.1893-.49.1413Z" fill="#1a2e35"/></g><g><path id="e4HVG9auZBD172" d="M546.789,129.341l-13.87-3.692c0,0-13.602,33.476-18.405,35.663-6.536,2.974-23.089,13.262-30.124,18.224-.389,1.657-.083,6.08.803,7.282c11.96-2.173,34.972-11.02,39.772-15.516c10.941-10.252,21.824-41.961,21.824-41.961Z" fill="#ff8b7b"/></g><g><path d="M535.742,457.37c-.126,0-.231.02-.312.06-.067.034-.146.095-.166.279-.048.379.042.661.271.863.52.464,1.829.525,3.553.181-1.096-.656-2.578-1.383-3.346-1.383Zm1.368,2.078c-.763,0-1.47-.131-1.902-.511-.342-.304-.484-.727-.418-1.259.048-.394.269-.582.446-.67c1.134-.57,4.264,1.418,4.619,1.646.077.052.115.147.093.243-.02.092-.096.168-.189.191-.708.168-1.72.36-2.649.36Z" fill="#007cff"/></g><g><path d="M537.915,455.025c-.035,0-.071.004-.108.007-.311.037-.347.181-.361.24-.166.661,1.017,2.324,2.004,3.108-.067-.847-.288-2.536-1.002-3.147-.162-.139-.337-.208-.533-.208Zm1.788,4.069c-.039,0-.079-.009-.112-.028-1.007-.565-2.885-2.764-2.607-3.884.05-.201.22-.553.792-.622.376-.047.708.057.996.305c1.111.953,1.18,3.851,1.182,3.972.002.088-.044.172-.12.217-.04.027-.086.04-.131.04Z" fill="#007cff"/></g><g><path d="M499.537,456.205c-.181.044-.325.106-.42.19-.084.075-.114.16-.102.282.036.318.173.54.422.674.708.386,2.352.082,4.468-.804-1.488-.312-3.432-.57-4.368-.342Zm2.168,1.584c-.981.237-1.918.308-2.514-.016-.38-.207-.599-.55-.648-1.019-.032-.279.062-.523.27-.705c1.075-.958,5.423.07,5.918.19.096.024.164.107.168.208.004.102-.056.196-.151.24-.807.368-1.953.838-3.043,1.102Z" fill="#007cff"/></g><g><path d="M501.552,453.335c-.047.011-.092.027-.139.041-.415.146-.411.315-.409.371.016.688,1.932,1.953,3.285,2.381-.269-.736-.919-2.221-1.868-2.689-.287-.141-.572-.177-.869-.104Zm3.152,3.367c-.034.008-.067.008-.1.004-1.292-.239-4.051-1.774-4.078-2.922-.005-.268.12-.636.752-.854.459-.172.931-.138,1.374.08c1.448.714,2.205,3.274,2.238,3.384.023.08,0,.166-.058.232-.034.038-.08.065-.128.076Z" fill="#007cff"/></g><g transform="matrix(.999818-.019094 0.019094 0.999818-3.377966 9.265453)"><path id="e4HVG9auZBD182" d="M485.52,178.748l-13.904,6.4-1.613,3.924l5.139,3.456c0,0,9.589-1.042,12.321-7.205l-1.943-6.575Z" transform="translate(0-.151163)" fill="#ff8b7b"/></g><g><path id="e4HVG9auZBD184" d="M462.221,190.316l1.848,1.871l12.475-5.336-4.927-1.703-9.396,5.168Z" transform="translate(0 0.026704)" fill="#ff8b7b"/></g><g><g><g opacity="0.199997"><g><path d="M515.803,434.019c.075-.031,1.899,5.104,1.899,5.104l-18.459,7.752-2.909-5.408l19.469-7.448Z"/></g></g></g></g><g><g><g opacity="0.199997"><g><path d="M553.523,440.487c.079,0,.615,5.139.615,5.139h-20.21l-1.442-5.9l21.037.761Z"/></g></g></g></g><g><path d="M550.405,125.504c3.669,11.823-10.614,27.974-10.614,27.974l-19.797-8.08c0,0,2.791-8.59,8.099-20.096c6.033-13.08,18.609-11.73,22.312.202Z" fill="#007cff"/></g><g><g><g opacity="0.199997"><g><path d="M550.405,125.504c3.669,11.823-10.614,27.974-10.614,27.974l-19.797-8.08c0,0,2.791-8.59,8.099-20.096c6.033-13.08,18.609-11.73,22.312.202Z"/></g></g></g></g></g></g><path d="M326.5,22.1925h-8.516v-1.3693h8.516v1.3693Z" fill="#007cff"/><g><path d="M437.142,98.116l-1.367-.0613l1.022-22.88l1.368.0626-1.023,22.8787Z" fill="#007cff"/></g><g><path d="M434.15,26.9882h-157.332L262.172,354.614h157.332L434.15,26.9882Z" fill="#007cff"/></g><g><g><g><g><g opacity="0.559998"><g><path d="M429.453,31.4844h-157.332L257.476,359.11h157.332L429.453,31.4844Z" fill="#fafafa"/></g></g></g></g><g><g><g opacity="0.070007"><g><path d="M424.757,35.9799h-157.332L252.779,363.605h157.332L424.757,35.9799Z" fill="#007cff"/></g></g></g></g></g></g><g><path d="M406.848,178.871h-134.29l-1.121,25.076h134.291l1.12-25.076Z" fill="#fff"/></g><g><path d="M346.419,160.583h-73.044l-.501,11.219h73.044l.501-11.219Z" fill="#007cff"/></g><g><path d="M403.824,246.529h-134.29l-1.122,25.074h134.291l1.121-25.074Z" fill="#fff"/></g><g transform="translate(-1.438006 0)"><g><g><g><g opacity="0.470001"><g><path d="M379.198,305.445h-90.305l-1.344,30.052h90.305l1.344-30.052Z" fill="#007cff"/></g></g></g></g><g><path d="M283.018,339.834h89.987l1.329-29.735h-89.986l-1.33,29.735Zm90.139.317h-90.304c-.043,0-.084-.017-.115-.049-.029-.031-.046-.073-.044-.116l1.344-30.053c.003-.084.074-.152.158-.152h90.304c.044,0,.085.02.116.049.029.032.045.075.041.117l-1.341,30.052c-.003.086-.075.152-.159.152Z" transform="matrix(1 0 0 0.930128 0 22.706025)" fill="#fff" stroke-dashoffset="481.272759" stroke-dasharray="481.27"/></g><g><path d="M330.637,228.242h-60.286l-.501,11.218h60.285l.502-11.218Z" fill="#007cff"/></g><g><path d="M377.474,97.9017c-.336,7.5083-3.057,14.4413-7.419,20.0723-6.589,8.537-16.908,14.085-28.266,14.085s-21.167-5.548-26.992-14.085c-3.859-5.631-5.962-12.564-5.626-20.0723.844-18.8666,16.819-34.1586,35.671-34.1586c18.868,0,33.476,15.292,32.632,34.1586Z" fill="#fff"/></g><g><path d="M380.687,70.8938c-.089,1.9947-.812,3.8373-1.972,5.3333-1.75,2.268-4.493,3.7427-7.51,3.7427-3.019,0-5.624-1.4747-7.172-3.7427-1.026-1.496-1.584-3.3386-1.495-5.3333.224-5.0133,4.468-9.076,9.479-9.076c5.013,0,8.894,4.0627,8.67,9.076Z" fill="#007cff"/></g><g id="e4HVG9auZBD240" transform="matrix(-.021142 0 0-.021642 288.985227 195.551478)"><path d="M287.02,191.408c-.099,2.22-1.979,4.019-4.197,4.019-2.219,0-3.938-1.799-3.839-4.019.099-2.218,1.979-4.017,4.199-4.017c2.218,0,3.936,1.799,3.837,4.017Z" fill="#1a2e35"/></g><g id="e4HVG9auZBD242" transform="matrix(-.010218 0 0-.037452 304.060511 198.577654)"><path d="M305.003,191.408c-.098,2.22-1.978,4.019-4.197,4.019s-3.937-1.799-3.839-4.019c.099-2.218,1.979-4.017,4.198-4.017c2.22,0,3.937,1.799,3.838,4.017Z" fill="#1a2e35"/></g><g id="e4HVG9auZBD244" transform="matrix(-.009387 0 0-.01227 321.962201 193.757592)"><path d="M322.986,191.408c-.098,2.22-1.978,4.019-4.197,4.019s-3.937-1.799-3.839-4.019c.099-2.218,1.979-4.017,4.198-4.017c2.22,0,3.937,1.799,3.838,4.017Z" fill="#1a2e35"/></g><g id="e4HVG9auZBD246" transform="matrix(-.003484 0 0 0.055612 280.952521 244.658831)"><path d="M283.995,259.066c-.098,2.219-1.978,4.018-4.197,4.018s-3.937-1.799-3.839-4.018c.1-2.22,1.979-4.018,4.199-4.018c2.219,0,3.937,1.798,3.837,4.018Z" fill="#1a2e35"/></g><g id="e4HVG9auZBD248" transform="matrix(.000503 0 0 0.055609 297.81117 244.659608)"><path d="M301.979,259.066c-.099,2.219-1.979,4.018-4.198,4.018-2.218,0-3.937-1.799-3.838-4.018.1-2.22,1.978-4.018,4.198-4.018c2.219,0,3.938,1.798,3.838,4.018Z" fill="#1a2e35"/></g><g id="e4HVG9auZBD250" transform="matrix(.004729 0 0 0.05475 314.449947 244.882146)"><path d="M319.962,259.066c-.099,2.219-1.979,4.018-4.198,4.018-2.218,0-3.937-1.799-3.838-4.018.1-2.22,1.978-4.018,4.198-4.018c2.219,0,3.938,1.798,3.838,4.018Z" fill="#1a2e35"/></g><g id="e4HVG9auZBD252" transform="matrix(-.006102 0 0 0.054751 335.964578 244.881887)"><path d="M337.945,259.066c-.1,2.219-1.978,4.018-4.197,4.018-2.22,0-3.939-1.799-3.839-4.018.099-2.22,1.979-4.018,4.198-4.018c2.218,0,3.937,1.798,3.838,4.018Z" fill="#1a2e35"/></g><g id="e4HVG9auZBD254" transform="matrix(-.003213 0 0 0.010343 353.040185 256.38649)"><path d="M355.927,259.066c-.099,2.219-1.977,4.018-4.196,4.018-2.22,0-3.939-1.799-3.839-4.018.099-2.22,1.978-4.018,4.198-4.018c2.218,0,3.937,1.798,3.837,4.018Z" fill="#1a2e35"/></g><g><path d="M358.645,86.8147c-.342,7.6306-6.804,13.8143-14.432,13.8143-7.631,0-13.54-6.1837-13.199-13.8143C331.355,79.1853,337.817,73,345.447,73s13.539,6.1853,13.198,13.8147Z" fill="#007cff"/></g><g><path d="M370.055,117.974c-6.588,8.536-16.908,14.085-28.266,14.085s-21.168-5.549-26.992-14.085c6.48-6.453,16.739-10.645,28.098-10.645c11.372,0,21.254,4.192,27.16,10.645Z" fill="#007cff"/></g></g></g><g><g><g id="e4HVG9auZBD262"><path d="M173.877,209.987c-1.264,2.769-2.592,5.816-3.759,8.788-1.177,3-2.35,6.004-3.372,9.048-1.986,6.089-3.85,12.237-4.766,18.4l-.304,1.964c-.023.236-.006.572.097.993.196.847.724,1.98,1.465,3.092c1.502,2.25,3.631,4.527,5.924,6.642c2.291,2.149,4.776,4.202,7.36,6.154c2.559,1.968,5.258,3.895,7.899,5.699l-2.485,4.679c-6.344-2.772-12.252-6.09-17.975-10.25-2.812-2.145-5.592-4.453-8.053-7.572-1.214-1.573-2.406-3.352-3.187-5.697-.38-1.171-.643-2.496-.644-3.927.009-.329.027-.79.049-1.013l.067-.663.132-1.324c.725-7.068,2.292-13.861,4.355-20.45c1.038-3.291,2.149-6.548,3.416-9.744c1.293-3.219,2.569-6.307,4.186-9.544l9.595,4.725Z" fill="#ff8b7b"/></g><g><path d="M182.551,269.973l9.422-4.78-2.434,10.356c0,0-6.469,1.806-9.478-1.333l2.49-4.243Z" fill="#ff8b7b"/></g><g><path d="M200.602,266.893l-2.507,8.56-8.556.096l2.435-10.355l8.628,1.699Z" fill="#ff8b7b"/></g><g><path d="M213.91,160.065c0,0,.817,3.006,2.113,5.272-1.113,1.039-2.113.678-2.113.678v-5.95Z" fill="#ff5652"/></g><g><path d="M212.632,158.615c0,.844.447,1.528.999,1.528s.998-.684.998-1.528-.446-1.528-.998-1.528-.999.684-.999,1.528Z" fill="#1a2e35"/></g><g><path d="M213.387,157.134l2.027-.584c0,0-1.04,1.584-2.027.584Z" fill="#1a2e35"/></g><g><path d="M187.863,169.844c1.217,6.207,2.43,17.58-1.912,21.723c0,0,1.697,6.296,13.23,6.296c12.683,0,6.062-6.296,6.062-6.296-6.922-1.653-6.743-6.788-5.538-11.612l-11.842-10.111Z" fill="#ff8b7b"/></g><g><path d="M184.497,155.719c.636,10.362.684,14.761,5.917,20.08c7.873,8.001,20.461,4.953,22.933-5.391c2.227-9.309.812-24.691-9.33-28.816-9.994-4.063-20.156,3.765-19.52,14.127Z" fill="#ff8b7b"/></g><g><path d="M185.518,143.994c-5.196,1.895-12.128.485-9.408,16.524c2.88,16.981-1.553,22.568-1.553,22.568s19.723,4.201,39.856-.251c0,0-6.147-10.75-4.423-18.593c2.2-10.004.458-13.701.458-13.701s-17.622-9.211-24.93-6.547Z" fill="#1a2e35"/></g><g><path d="M207.52,161.12c-.021,2.053.699,4.121,1.632,5.557c1.405,2.163,3.071,1.282,3.488-.961.376-2.019.097-5.576-1.701-6.956-1.772-1.359-3.394.012-3.419,2.36Z" fill="#ff8b7b"/></g><g><path d="M181.005,145.808c-1.5-4.193,5.626-10.643,20.69-7.96c15.062,2.683,15.724,15.211,15.724,15.211l-3.048-3.618.136,3.81-15.48,2.974-18.022-10.417Z" fill="#1a2e35"/></g><g><path d="M182.282,192.271c-.208-1.28.653-2.488,1.933-2.699c4.692-.774,15.352-2.344,20.719-1.6c3.987.552,5.041,2.882,5.209,4.784.126,1.412-1.042,2.602-2.457,2.539l-23.185-1.048c-1.115-.051-2.04-.875-2.219-1.976Z" fill="#007cff"/></g><g><g><g opacity="0.600006"><g><path d="M182.282,192.271c-.208-1.28.653-2.488,1.933-2.699c4.692-.774,15.352-2.344,20.719-1.6c3.987.552,5.041,2.882,5.209,4.784.126,1.412-1.042,2.602-2.457,2.539l-23.185-1.048c-1.115-.051-2.04-.875-2.219-1.976Z"/></g></g></g></g><g><path d="M195.68,425.212l8.594,5.966l14.388-19.501-8.592-5.965-14.39,19.5Z" fill="#ff8b7b"/></g><g><path d="M175.62,424.818l9.09,5.176l12.736-20.624-9.09-5.177-12.736,20.625Z" fill="#ff8b7b"/></g><g><path d="M218.656,411.682l-7.414,10.052-8.596-5.968l7.414-10.054l8.596,5.97Z" fill="#ea7064"/></g><g><path d="M188.35,404.199l9.094,5.178-6.568,10.627-9.095-5.177l6.569-10.628Z" fill="#ea7064"/></g><g><path d="M202.93,257.381c0,0,33.575,42.313,27.276,82.776-5.088,32.683-34.55,76.937-34.55,76.937l-13.854-6.885c0,0,15.052-29.411,24.935-60.588c4.145-13.075,2.379-27.48-5.371-38.797-17.006-24.84-44.253-10.06-25.925-53.443h27.489Z" fill="#007cff"/></g><g><g><g opacity="0.600006"><g><path d="M202.93,257.381c0,0,33.575,42.313,27.276,82.776-5.088,32.683-34.55,76.937-34.55,76.937l-13.854-6.885c0,0,15.052-29.411,24.935-60.588c4.145-13.075,2.379-27.48-5.371-38.797-17.006-24.84-44.253-10.06-25.925-53.443h27.489Z"/></g></g></g></g><g><g><g opacity="0.399994"><g><path d="M219.399,284.57l-4.879-4.851c0,.384,9.455,58.739,12.114,75.14c1.602-5.029,2.836-9.988,3.576-14.703c3.082-19.812-3.399-40.076-10.811-55.586Z"/></g></g></g></g><g><path d="M217.926,257.381c0,0,40.424,53.173,41.561,85.06.953,26.717-44.033,78.327-44.033,78.327l-13.06-8.45c0,0,26.305-36.689,32.926-66.681-2.525-29.685-56.721-88.256-56.721-88.256h39.327Z" fill="#007cff"/></g><g><g><g opacity="0.600006"><g><path d="M217.926,257.381c0,0,40.424,53.173,41.561,85.06.953,26.717-44.033,78.327-44.033,78.327l-13.06-8.45c0,0,26.305-36.689,32.926-66.681-2.525-29.685-56.721-88.256-56.721-88.256h39.327Z"/></g></g></g></g><g><path d="M167.91,193.943c-4.329,1.022-8.467,16.738-8.467,16.738l16.884,11.27c0,0,5.627-12.421,3.663-17.862-2.047-5.667-6.612-11.435-12.08-10.146Z" fill="#007cff"/></g><g><g><g opacity="0.199997"><g><path d="M171.215,204.055l-1.18,13.692l6.286,4.207c0,0,2.946-6.508,3.823-12.18l-8.929-5.719Z"/></g></g></g></g><g><path d="M222.925,194.246c0,0,4.982,1.756-4.999,63.135h-42.484c.712-17.291.732-27.952-7.532-63.438c0,0,8.903-1.937,18.041-2.377c7.15-.344,13.007-.572,19.291.001c8.287.756,17.683,2.679,17.683,2.679Z" fill="#007cff"/></g><g id="e4HVG9auZBD327"><path d="M227.239,203.993c.963,2.661,1.98,5.537,3.04,8.301c1.017,2.804,2.075,5.602,3.164,8.39l3.268,8.374.828,2.094.415,1.046.208.523c.036.095.028.085.016.076-.058-.025-.107-.289-.934-.832-.405-.252-1.085-.495-1.741-.508-.66-.024-1.184.136-1.483.268-.601.287-.61.409-.597.391.039-.02.163-.139.299-.303.582-.7,1.286-1.907,1.905-3.107.631-1.224,1.225-2.53,1.82-3.854c1.18-2.659,2.253-5.431,3.345-8.21c1.08-2.785,2.727-5.949938,3.735-8.785938l2.407-8.170062l5.004386,1.232742C253.935931,207.245742,249.74,213.03,248.174,219.013c-.766,2.997-1.651,5.971-2.663,8.971-.504,1.502-1.069,3.001-1.716,4.529-.675,1.54-1.341,3.057-2.535,4.823-.312.446-.668.917-1.162,1.437-.524.512-1.128,1.132-2.43,1.717-.648.278-1.549.526-2.589.483-1.035-.029-2.085-.396-2.812-.847-1.479-.944-1.989-1.842-2.425-2.518-.204-.338-.378-.688-.496-.94l-.254-.516-.505-1.035-1.009-2.071c-1.316-2.774-2.607-5.564-3.831-8.385-1.211-2.827-2.391-5.668-3.536-8.533-1.095-2.908-2.177-5.726-3.14-8.819l10.168-3.316Z" transform="translate(0-.10925)" fill="#ff8b7b"/></g><g><path id="e4HVG9auZBD330" d="M222.925,194.246c5.106,1.217,10.844,16.304,10.844,16.304l-15.176,12.932c0,0-9.835-16.452-7.846-21.884c2.071-5.657,5.507-8.941,12.178-7.352Z" fill="#007cff"/></g><g id="e4HVG9auZBD331" transform="translate(0 0.091713)"><path d="M249.738234,194.155287L254.627,190.528c1.801539,2.781102,4.315422,5.416743,3.407456,6.037717L255.602,201.12c0,0-4.347,3.977-8.195,1.955-1.24-2.819-.030766-6.945713,2.331234-8.919713Z" transform="translate(.036233-.172183)" fill="#ff8b7b"/></g><g id="e4HVG9auZBD333" transform="matrix(.99684-.079435 0.079435 0.99684-14.429082 21.216897)"><path id="e4HVG9auZBD334" d="M264.296,190.541l-.399,1.451-8.437,1.417-.832-2.881l9.668.013Z" transform="matrix(.999832-.018307 0.018307 0.999832-3.866752 4.189273)" fill="#ff8b7b"/></g><g><path d="M216.536,421.468l-15.224-9.849l2.725-4.74l17.111,10.517-4.612,4.072Z" fill="#007cff"/></g><g><path d="M187.646,427.843c1.656.843,2.989,1.154,3.631.835.272-.137.43-.391.484-.779.028-.208-.046-.301-.115-.357-.536-.452-2.539-.1-4,.301Zm2.999,1.455c-1.211,0-2.804-.768-3.77-1.305-.086-.048-.136-.143-.125-.242.008-.098.077-.181.171-.212.41-.129,4.022-1.236,5.045-.377.161.137.341.387.284.804-.075.555-.327.944-.752,1.155-.245.124-.536.177-.853.177Z" fill="#1a2e35"/></g><g><path d="M189.581,424.387c-.123,0-.247.03-.372.09-.816.393-1.502,1.957-1.83,2.906c1.174-.493,2.776-1.801,2.834-2.532.008-.118-.019-.273-.312-.396-.107-.045-.215-.068-.32-.068Zm-2.586,3.638c-.066,0-.13-.028-.177-.076-.063-.064-.085-.155-.061-.24.036-.123.868-3.018,2.237-3.679.364-.173.735-.184,1.097-.033.578.242.634.664.615.893-.095,1.199-2.537,2.855-3.652,3.127-.019.005-.039.008-.059.008" fill="#1a2e35"/></g><g><path d="M205.828,432.123c1.685,1.639,3.159,2.544,4.004,2.431.296-.036.52-.196.687-.49.064-.112.069-.209.017-.312-.356-.713-2.832-1.328-4.708-1.629Zm3.863,2.936c-1.502,0-3.595-1.929-4.74-3.116-.074-.075-.091-.188-.044-.283.048-.093.168-.146.253-.134.527.068,5.164.693,5.82,2.004.125.252.115.522-.031.78-.245.432-.601.678-1.056.737-.065.008-.133.012-.202.012Z" fill="#1a2e35"/></g><g><path d="M205.63,431.581c1.49.083,3.871-.412,4.182-1.061.026-.055.105-.219-.239-.516-.288-.245-.621-.348-1.007-.313-1.12.098-2.368,1.286-2.936,1.89Zm.344.5c-.342,0-.649-.021-.89-.066-.087-.016-.158-.076-.188-.158s-.015-.176.041-.244c.077-.092,1.88-2.266,3.585-2.416.534-.041.984.1,1.371.431.525.449.488.849.365,1.104-.422.889-2.726,1.349-4.284,1.349Z" fill="#1a2e35"/></g><g><path d="M187.362,426.62l-11.309-3.196c-.412-.117-.827.075-.998.459l-3.817,8.584c-.396.891.153,1.995,1.108,2.247c3.961,1.045,5.927,1.352,10.9,2.758c3.06.864,7.44,2.446,11.665,3.64c4.132,1.168,5.631-2.92,3.979-3.796-7.409-3.926-7.995-6.617-10.021-9.601-.366-.539-.906-.924-1.507-1.095Z" fill="#007cff"/></g><g><path d="M205.258,430.387l-9.653-6.702c-.351-.244-.805-.198-1.093.112l-6.403,6.873c-.664.713-.503,1.936.317,2.484c3.406,2.279,5.166,3.207,9.41,6.155c2.612,1.813,7.826,5.834,11.432,8.338c3.528,2.45,6.274-.928,4.997-2.293-5.728-6.124-6.992-9.961-7.937-13.441-.171-.628-.555-1.168-1.07-1.526Z" fill="#007cff"/></g><g><path d="M197.433,417.977l-17.408-8.652l1.801-4.709l18.582,9.108-2.975,4.253Z" fill="#007cff"/></g><g><path d="M174.805,254.887l-1.472,3.803c-.149.296.2.596.691.596h44.112c.383,0,.7-.187.724-.428l.384-3.803c.025-.264-.307-.486-.725-.486h-43.022c-.316,0-.596.129-.692.318Z" fill="#007cff"/></g><g><g><g opacity="0.399994"><g><path d="M174.805,254.887l-1.472,3.803c-.149.296.2.596.691.596h44.112c.383,0,.7-.187.724-.428l.384-3.803c.025-.264-.307-.486-.725-.486h-43.022c-.316,0-.596.129-.692.318Z" fill="#fff"/></g></g></g></g><g><path d="M181.743,259.698h-1.152c-.23,0-.404-.117-.389-.263l.541-4.94c.016-.145.216-.264.446-.264h1.152c.23,0,.404.119.389.264l-.541,4.94c-.016.146-.216.263-.446.263Z" fill="#007cff"/></g><g><path d="M208.952,259.698h-1.152c-.229,0-.404-.117-.388-.263l.54-4.94c.016-.145.216-.264.445-.264h1.154c.229,0,.404.119.388.264l-.542,4.94c-.014.146-.216.263-.445.263Z" fill="#007cff"/></g><g><g><g><g><path d="M145.007,482.919c-.065,1.43,15.875,2.592,35.603,2.593s35.775-1.159,35.84-2.589c.065-1.432-15.873-2.594-35.603-2.595-19.728-.001-35.774,1.159-35.84,2.591Z" fill="#f5f5f5"/></g></g></g></g><g><path d="M202.497,479.264c-6.32-1.835-13.276-4.199-17.58-6.714-.119-.069-.246-.12-.367-.184v-28.57h12.711c2.102,0,3.806-1.704,3.806-3.806s-1.704-3.806-3.806-3.806h-12.711v-130.431h-7.612v130.431h-12.713c-2.102,0-3.806,1.704-3.806,3.806s1.704,3.806,3.806,3.806h12.713v28.57c-.123.064-.249.115-.369.184-4.304,2.515-11.259,4.879-17.58,6.714-2.074.601-1.636,3.654.524,3.654h21.23h21.231c2.16,0,2.597-3.053.523-3.654" fill="#e1e1e1"/></g><g><path d="M204.453,320.393h-47.42c-3.799,0-6.907-3.108-6.907-6.908v-14.096c0-3.8,3.108-6.908,6.907-6.908h47.42c3.799,0,6.907,3.108,6.907,6.908v14.096c0,3.8-3.108,6.908-6.907,6.908Z" fill="#007cff"/></g><g><path d="M156.597,320.393v2.425c0,2.001,2.177,3.637,4.837,3.637h38.618c2.66,0,4.837-1.636,4.837-3.637v-2.425h-48.292Z" fill="#007cff"/></g><g><g><g opacity="0.300003"><g><path d="M156.597,320.393v2.425c0,2.001,2.177,3.637,4.837,3.637h38.618c2.66,0,4.837-1.636,4.837-3.637v-2.425h-48.292Z" fill="#fff"/></g></g></g></g></g></g></g></g><clipPath id="e4HVG9auZBD378"><rect width="666.667" height="666.667" rx="0" ry="0" fill="#fff"/></clipPath></g></svg>