<svg width="512" height="512" viewBox="0 0 512 512" fill="none" xmlns="http://www.w3.org/2000/svg">
<g id="ecom">
<path id="Vector" d="M508 109.852H4V468.348H508V109.852Z" fill="white"/>
<g id="background">
<path id="Vector_2" d="M369.968 431.172H142.032L104.664 459.588H407.336L369.968 431.172Z" fill="#E2E2E2"/>
<path id="Vector_3" d="M113.32 431.172H47.632L10.256 459.588H76.072L113.32 431.172Z" fill="#E2E2E2"/>
<path id="Vector_4" d="M464.368 431.172H398.68L435.928 459.588H501.744L464.368 431.172Z" fill="#E2E2E2"/>
<path id="Vector_5" d="M369.968 147.788H142.032L104.664 119.372H407.336L369.968 147.788Z" fill="#E2E2E2"/>
<path id="Vector_6" d="M113.32 147.788H47.632L10.256 119.372H76.072L113.32 147.788Z" fill="#E2E2E2"/>
<path id="Vector_7" d="M464.368 147.788H398.68L435.928 119.372H501.744L464.368 147.788Z" fill="#E2E2E2"/>
</g>
<path id="Vector_8" d="M504 113.852V464.348H8V113.852H504ZM512 105.852H0V472.348H512V105.852Z" fill="#E5E5E5"/>
<g id="alphabet">
<path id="Vector_9" d="M296.312 86.996C296.208 85.452 297.376 84.108 298.92 84.004C299.016 83.996 299.104 83.996 299.2 83.996C300.84 83.996 302.168 85.324 302.168 86.964C302.168 88.604 300.84 89.924 299.2 89.932C297.64 89.972 296.344 88.732 296.312 87.172C296.312 87.116 296.312 87.052 296.312 86.996Z" fill="black"/>
<path id="Vector_10" d="M215.624 71.244L217.536 79.556C217.952 81.508 218.336 83.5 218.704 85.492H218.784C219.16 83.5 219.76 81.492 220.288 79.596L222.688 71.244H226.448L228.744 79.372C229.304 81.516 229.792 83.508 230.208 85.5H230.288C230.584 83.508 231 81.5 231.488 79.372L233.52 71.244H238.064L232.312 89.556H228L225.824 82.108C225.256 80.18 224.792 78.22 224.432 76.244H224.352C224.016 78.228 223.552 80.188 222.96 82.108L220.632 89.556H216.304L210.88 71.244H215.624V71.244Z" fill="black"/>
<path id="Vector_11" d="M244.392 71.244L246.304 79.556C246.72 81.508 247.104 83.5 247.472 85.492H247.552C247.928 83.5 248.528 81.492 249.056 79.596L251.456 71.244H255.216L257.512 79.372C258.072 81.516 258.56 83.508 258.976 85.5H259.056C259.352 83.508 259.768 81.5 260.256 79.372L262.288 71.244H266.832L261.08 89.556H256.792L254.616 82.108C254.048 80.18 253.584 78.22 253.224 76.244H253.144C252.808 78.228 252.344 80.188 251.752 82.108L249.424 89.556H245.096L239.68 71.244H244.392V71.244Z" fill="black"/>
<path id="Vector_12" d="M273.16 71.244L275.072 79.556C275.488 81.508 275.872 83.5 276.24 85.492H276.32C276.696 83.5 277.296 81.492 277.824 79.596L280.224 71.244H283.984L286.28 79.372C286.84 81.516 287.328 83.508 287.744 85.5H287.824C288.12 83.508 288.536 81.5 289.024 79.372L291.056 71.244H295.6L289.848 89.556H285.52L283.344 82.108C282.776 80.18 282.312 78.22 281.952 76.244H281.872C281.536 78.228 281.072 80.188 280.48 82.108L278.152 89.556H273.824L268.408 71.244H273.16V71.244Z" fill="black"/>
</g>
<g id="NavBar">
<path id="Vector_13" d="M0 119.372V55.636C0.024 46.812 7.176 39.66 16 39.636H495.96C504.784 39.66 511.936 46.812 511.96 55.636V119.364H0V119.372Z" fill="black"/>
<path id="Vector_14" d="M471.624 101.508H171.536L200.24 57.508H471.624V101.508Z" fill="white"/>
<path id="Vector_15" d="M53.904 92.516C61.4195 92.516 67.512 86.4235 67.512 78.908C67.512 71.3925 61.4195 65.3 53.904 65.3C46.3885 65.3 40.296 71.3925 40.296 78.908C40.296 86.4235 46.3885 92.516 53.904 92.516Z" fill="#E21B1B"/>
<path id="Vector_16" d="M89.976 92.516C97.4915 92.516 103.584 86.4235 103.584 78.908C103.584 71.3925 97.4915 65.3 89.976 65.3C82.4605 65.3 76.368 71.3925 76.368 78.908C76.368 86.4235 82.4605 92.516 89.976 92.516Z" fill="#939393"/>
<path id="Vector_17" d="M126.056 92.516C133.571 92.516 139.664 86.4235 139.664 78.908C139.664 71.3925 133.571 65.3 126.056 65.3C118.541 65.3 112.448 71.3925 112.448 78.908C112.448 86.4235 118.541 92.516 126.056 92.516Z" fill="#E2E2E2"/>
<path id="Vector_18" d="M440.352 92.508L437.496 89.708L447.384 79.548L436.904 69.324L439.696 66.468L453.04 79.468L440.352 92.508Z" fill="black"/>
<path id="Vector_19" d="M448.032 77.508H421.616V81.508H448.032V77.508Z" fill="black"/>
</g>
<g id="cart">
<path id="Vector_20" d="M74.232 244.324H228.592L199.168 326.876H99.936L74.232 244.324Z" fill="#E21B1B"/>
<path id="Vector_21" d="M181.848 379.268C193.671 379.268 203.256 369.683 203.256 357.86C203.256 346.037 193.671 336.452 181.848 336.452C170.025 336.452 160.44 346.037 160.44 357.86C160.44 369.683 170.025 379.268 181.848 379.268Z" fill="black"/>
<path id="Vector_22" d="M101.192 253.66L87.136 212.06H50.736V200.948H95.112L111.72 250.1L101.192 253.66Z" fill="black"/>
<path id="Vector_23" d="M117.28 379.268C129.103 379.268 138.688 369.683 138.688 357.86C138.688 346.037 129.103 336.452 117.28 336.452C105.457 336.452 95.872 346.037 95.872 357.86C95.872 369.683 105.457 379.268 117.28 379.268Z" fill="black"/>
</g>
<g id="loadingLines">
<path id="Vector_24" d="M447.824 255.732H277.456V263.732H447.824V255.732Z" fill="#999999"/>
<path id="Vector_25" d="M405.312 289.996H277.456V297.996H405.312V289.996Z" fill="#999999"/>
<path id="Vector_26" d="M447.824 221.476H277.456V229.476H447.824V221.476Z" fill="#E21B1B"/>
</g>
<g id="loadingDots">
<path id="Vector_27" d="M304.032 328.156H277.448V354.74H304.032V328.156Z" fill="#999999"/>
<path id="Vector_28" d="M352.064 328.156H325.48V354.74H352.064V328.156Z" fill="#999999"/>
<path id="Vector_29" d="M400.088 328.156H373.504V354.74H400.088V328.156Z" fill="#999999"/>
<path id="Vector_30" d="M448.112 328.156H421.528V354.74H448.112V328.156Z" fill="#999999"/>
</g>
</g>
</svg>
