<svg width="430" height="430" viewBox="0 0 430 430" fill="none" xmlns="http://www.w3.org/2000/svg">
<g id="1103-confetti 1">
<g id="cone">
<path id="Vector" d="M260.96 304.55C259.42 304.55 257.89 303.96 256.72 302.79C254.54 300.61 254.39 297.16 256.28 294.8C256.4 292.84 254.46 285.48 243.92 270.38C234.35 256.67 220.45 240.49 204.79 224.84C189.13 209.18 172.96 195.29 159.25 185.71C144.15 175.17 136.8 173.23 134.83 173.35C132.48 175.24 129.02 175.09 126.84 172.91C124.5 170.57 124.5 166.77 126.84 164.42C132.89 158.37 144.26 161.25 162.63 173.49C177.67 183.51 195.66 198.73 213.28 216.35C230.9 233.97 246.12 251.96 256.14 267C268.38 285.37 271.26 296.74 265.21 302.79C264.03 303.97 262.49 304.55 260.96 304.55Z" fill="#121331"/>
<path id="Vector_2" d="M265.2 294.31C263.02 292.13 259.59 291.98 257.24 293.85C257.17 293.85 257.1 293.86 257.03 293.87C254.86 293.88 247.49 291.78 232.79 281.51C219.08 271.94 202.9 258.04 187.25 242.38C171.6 226.72 157.7 210.55 148.12 196.84C137.85 182.12 135.75 174.77 135.76 172.59C135.77 172.52 135.77 172.46 135.78 172.39C137.65 170.04 137.5 166.6 135.32 164.43C132.98 162.09 129.18 162.09 126.83 164.43C125.16 166.1 124.2 168.19 123.9 170.71L52.2 360.66C50.37 365.5 51.51 370.79 55.17 374.45C57.68 376.96 60.94 378.28 64.31 378.28C65.86 378.28 67.43 378 68.96 377.42L258.86 305.76C261.41 305.47 263.51 304.49 265.2 302.8C267.54 300.45 267.54 296.65 265.2 294.31ZM64.72 366.19C64.57 366.25 64.11 366.42 63.66 365.96C63.2 365.5 63.37 365.05 63.43 364.9L129.53 189.74C131.26 192.95 133.37 196.43 135.89 200.22C145.91 215.26 161.13 233.25 178.75 250.87C196.37 268.49 214.36 283.71 229.4 293.73C233.18 296.25 236.66 298.37 239.86 300.1L64.72 366.19Z" fill="#121331"/>
</g>
<g id="longStrip">
<path id="Vector_3" d="M323.4 311.23C320.09 311.23 317.4 308.54 317.4 305.23C317.4 276.8 300.64 263.27 286.58 256.92C258.55 244.27 222.2 250.27 207.1 263.58C204.61 265.77 200.82 265.53 198.63 263.05C196.44 260.56 196.68 256.77 199.16 254.58C219.61 236.55 261.9 232.61 291.51 245.98C315.94 257.01 329.4 278.05 329.4 305.23C329.4 308.54 326.71 311.23 323.4 311.23Z" fill="#08A88A"/>
<path id="Vector_4" d="M170.76 239C169.75 239 168.72 238.74 167.78 238.2C164.91 236.55 163.92 232.88 165.57 230.01C179.79 205.26 177.94 153.15 152.53 117.94C139.64 100.08 115.94 80.49 76.2 88.58C72.95 89.24 69.78 87.15 69.12 83.9C68.46 80.65 70.56 77.48 73.8 76.82C109.7 69.51 141.12 81.62 162.26 110.91C188.09 146.7 194.37 203.98 175.97 235.99C174.86 237.92 172.84 239 170.76 239Z" fill="#08A88A"/>
<path id="Vector_5" d="M250.26 202.88C248.84 202.88 247.41 202.38 246.26 201.35C243.79 199.14 243.58 195.35 245.79 192.88C252.94 184.88 263 186.86 270.34 188.3C277.61 189.73 281.3 190.12 283.64 187.5C285.98 184.88 285.18 181.27 282.95 174.2C280.7 167.06 277.61 157.28 284.76 149.29C291.91 141.3 301.97 143.27 309.31 144.72C316.58 146.15 320.27 146.54 322.6 143.92C324.81 141.45 328.6 141.24 331.07 143.45C333.54 145.66 333.75 149.45 331.54 151.92C324.39 159.91 314.33 157.94 306.99 156.49C299.72 155.06 296.03 154.67 293.7 157.29C291.36 159.91 292.16 163.52 294.39 170.59C296.64 177.73 299.73 187.51 292.58 195.5C285.43 203.49 275.37 201.52 268.03 200.08C260.76 198.65 257.07 198.26 254.74 200.88C253.55 202.2 251.91 202.88 250.26 202.88Z" fill="#08A88A"/>
<path id="Vector_6" d="M223.97 162.21C220.75 162.21 218.08 159.65 217.98 156.4C217.63 145.68 226.28 140.17 232.59 136.14C238.84 132.15 241.77 129.89 241.66 126.38C241.55 122.87 238.47 120.81 231.98 117.23C225.42 113.62 216.44 108.68 216.09 97.96C215.74 87.24 224.39 81.73 230.7 77.7C236.95 73.71 239.88 71.45 239.77 67.95C239.66 64.64 242.26 61.87 245.57 61.76C248.87 61.66 251.65 64.25 251.76 67.56C252.11 78.28 243.46 83.79 237.15 87.82C230.9 91.81 227.97 94.07 228.08 97.57C228.19 101.08 231.27 103.15 237.76 106.72C244.32 110.33 253.3 115.27 253.65 125.99C254 136.71 245.35 142.22 239.04 146.25C232.79 150.24 229.86 152.5 229.97 156.01C230.08 159.32 227.48 162.09 224.17 162.2C224.1 162.2 224.03 162.21 223.97 162.21Z" fill="#08A88A"/>
</g>
<g id="smallStrip">
<path id="Vector_7" d="M178.18 75.97C177.14 75.97 176.08 75.7 175.12 75.13C172.27 73.44 171.34 69.75 173.03 66.91L180.31 54.67C182 51.82 185.69 50.89 188.53 52.58C191.38 54.27 192.31 57.96 190.62 60.8L183.34 73.04C182.22 74.92 180.23 75.97 178.18 75.97Z" fill="#121331"/>
<path id="Vector_8" d="M305.7 368.73C303.67 368.73 301.69 367.7 300.56 365.84C298.84 363.01 299.74 359.32 302.58 357.6L317.88 348.32C320.71 346.6 324.4 347.5 326.12 350.34C327.84 353.17 326.94 356.86 324.1 358.58L308.8 367.86C307.83 368.45 306.76 368.73 305.7 368.73Z" fill="#121331"/>
<path id="Vector_9" d="M365.84 298.74C364.8 298.74 363.74 298.47 362.78 297.9C359.93 296.21 359 292.52 360.69 289.68L367.97 277.44C369.66 274.59 373.34 273.66 376.19 275.35C379.04 277.04 379.97 280.73 378.28 283.57L371 295.81C369.88 297.69 367.88 298.74 365.84 298.74Z" fill="#08A88A"/>
<path id="Vector_10" d="M56.88 237.11C55.34 237.11 53.81 236.52 52.64 235.35C50.3 233.01 50.3 229.21 52.64 226.86L62.71 216.79C65.05 214.45 68.85 214.45 71.2 216.79C73.54 219.13 73.54 222.93 71.2 225.28L61.13 235.35C59.95 236.52 58.42 237.11 56.88 237.11Z" fill="#08A88A"/>
<path id="Vector_11" d="M338.11 89.48C336.57 89.48 335.04 88.89 333.87 87.72L323.8 77.66C321.46 75.32 321.46 71.52 323.8 69.17C326.14 66.83 329.94 66.83 332.29 69.17L342.36 79.24C344.7 81.58 344.7 85.38 342.36 87.73C341.18 88.9 339.65 89.48 338.11 89.48Z" fill="#121331"/>
<path id="Vector_12" d="M213.93 368.76C211.52 368.76 209.25 367.3 208.33 364.92L203.19 351.64C201.99 348.55 203.53 345.07 206.62 343.88C209.71 342.68 213.19 344.22 214.38 347.31L219.52 360.59C220.72 363.68 219.18 367.16 216.09 368.35C215.38 368.63 214.65 368.76 213.93 368.76Z" fill="#08A88A"/>
<path id="Vector_13" d="M95.48 150.46C94.09 150.46 92.7 149.98 91.57 149.01L80.78 139.72C78.27 137.56 77.98 133.77 80.15 131.26C82.31 128.75 86.1 128.46 88.61 130.63L99.4 139.92C101.91 142.08 102.2 145.87 100.03 148.38C98.85 149.76 97.17 150.46 95.48 150.46Z" fill="#121331"/>
<path id="Vector_14" d="M349.74 218.19C347.12 218.19 344.71 216.46 343.97 213.81L340.11 200.1C339.21 196.91 341.07 193.6 344.26 192.7C347.45 191.8 350.76 193.66 351.66 196.85L355.52 210.56C356.42 213.75 354.56 217.06 351.37 217.96C350.83 218.12 350.28 218.19 349.74 218.19Z" fill="#121331"/>
</g>
</g>
</svg>
